name analog
datacolumns 19
datarows 27
range 0.0 0.013000000000000001
endheader
time	ground_force_vx	ground_force_vy	ground_force_vz	ground_force_px	ground_force_py	ground_force_pz	l_ground_force_vx	l_ground_force_vy	l_ground_force_vz	l_ground_force_px	l_ground_force_py	l_ground_force_pz	ground_torque_x	ground_torque_y	ground_torque_z	l_ground_torque_x	l_ground_torque_y	l_ground_torque_z
0.0	-0.0	-0.0	-0.0	-0.0864496454596519	20.803529739379883	-225.3506622314453	-0.7679474949836731	-20.31136131286621	-278.9825439453125	-0.0	-0.0	-0.0	-0.0	-0.0	-0.0	82322.625	13062.435546875	-2259.2900390625
0.0005	-0.0	-0.0	-0.0	-0.3032682836055755	20.91509246826172	-225.66195678710935	-1.0621225833892822	-19.93525505065918	-278.7425231933594	-0.0	-0.0	-0.0	-0.0	-0.0	-0.0	82328.015625	12926.3037109375	-2201.7626953125
0.001	-0.0	-0.0	-0.0	-0.0586968436837196	21.39129638671875	-225.67274475097656	-0.826494038105011	-20.30738639831543	-280.1302185058594	-0.0	-0.0	-0.0	-0.0	-0.0	-0.0	82566.703125	12959.5595703125	-2142.295654296875
0.0015	-0.0	-0.0	-0.0	-0.032619222998619	20.973915100097656	-225.11331176757807	-0.5907244682312012	-20.605005264282227	-278.2818908691406	-0.0	-0.0	-0.0	-0.0	-0.0	-0.0	82581.890625	12855.74609375	-2190.677001953125
0.002	-0.0	-0.0	-0.0	-0.0569010600447654	21.269886016845703	-224.6300811767578	-0.5889902710914612	-20.13914680480957	-279.9008483886719	-0.0	-0.0	-0.0	-0.0	-0.0	-0.0	82404.1953125	12739.857421875	-2180.493408203125
0.0025	-0.0	-0.0	-0.0	-0.2944852709770202	21.270151138305664	-225.31509399414065	-0.237637311220169	-20.52221298217773	-280.01959228515625	-0.0	-0.0	-0.0	-0.0	-0.0	-0.0	82623.46875	12739.529296875	-2102.0
0.003	-0.0	-0.0	-0.0	-0.1179345697164535	21.03477478027344	-223.91607666015625	0.0873075127601623	-20.60746192932129	-279.54669189453125	-0.0	-0.0	-0.0	-0.0	-0.0	-0.0	82406.34375	12892.4990234375	-2091.699462890625
0.0035	-0.0	-0.0	-0.0	-0.5942937135696411	20.944316864013672	-224.74191284179688	-0.118685781955719	-20.78423118591309	-279.7884521484375	-0.0	-0.0	-0.0	-0.0	-0.0	-0.0	82682.3046875	12551.8759765625	-1993.26025390625
0.004	-0.0	-0.0	-0.0	-0.1819027662277221	20.767383575439453	-224.98480224609372	0.0309658795595169	-20.81517219543457	-280.7178955078125	-0.0	-0.0	-0.0	-0.0	-0.0	-0.0	82375.953125	12773.4931640625	-2071.7431640625
0.0045000000000000005	-0.0	-0.0	-0.0	-0.9212231040000916	20.73643684387207	-223.209716796875	0.2354745119810104	-20.54924201965332	-279.4355773925781	-0.0	-0.0	-0.0	-0.0	-0.0	-0.0	82668.765625	12301.234375	-1942.6480712890625
0.005	-0.0	-0.0	-0.0	-0.8021641373634338	20.735971450805664	-224.6166534423828	0.0880917981266975	-20.58018493652344	-280.7203369140625	-0.0	-0.0	-0.0	-0.0	-0.0	-0.0	82869.296875	12544.9619140625	-1992.4483642578125
0.0055	-0.0	-0.0	-0.0	-1.0417251586914062	20.47065544128418	-223.4399871826172	0.3251225650310516	-20.167383193969727	-280.1365661621094	-0.0	-0.0	-0.0	-0.0	-0.0	-0.0	82845.921875	12537.98828125	-2002.1693115234373
0.006	-0.0	-0.0	-0.0	-0.9222809076309204	20.41217803955078	-221.9151611328125	0.1774215698242187	-20.843917846679688	-281.1837463378906	-0.0	-0.0	-0.0	-0.0	-0.0	-0.0	82751.546875	12336.419921875	-2022.3228759765625
0.006500000000000001	-0.0	-0.0	-0.0	-1.367674469947815	20.618877410888672	-222.9744415283203	0.1774452328681945	-20.46111297607422	-282.2307434082031	-0.0	-0.0	-0.0	-0.0	-0.0	-0.0	82819.3359375	12510.9736328125	-1972.7802734375
0.007	-0.0	-0.0	-0.0	-1.278894543647766	20.292125701904297	-221.914306640625	0.3251487612724304	-20.49044609069824	-280.83404541015625	-0.0	-0.0	-0.0	-0.0	-0.0	-0.0	82974.03125	12577.1123046875	-1913.339111328125
0.0075	-0.0	-0.0	-0.0	-0.5945577621459961	20.44048309326172	-220.6190185546875	0.2359377294778823	-20.284671783447266	-279.5530700683594	-0.0	-0.0	-0.0	-0.0	-0.0	-0.0	82851.6640625	12397.255859375	-1913.3292236328125
0.008	-0.0	-0.0	-0.0	-1.1310181617736816	20.588685989379883	-220.3860015869141	0.5322647094726562	-20.608753204345703	-279.6683044433594	-0.0	-0.0	-0.0	-0.0	-0.0	-0.0	82759.90625	12510.0693359375	-1942.6650390625
0.0085	-0.0	-0.0	-0.0	-0.5647769570350647	20.38271141052246	-220.38162231445312	0.5916628241539001	-20.60736656188965	-280.9516906738281	-0.0	-0.0	-0.0	-0.0	-0.0	-0.0	82980.71875	12281.8017578125	-1903.0535888671875
0.009000000000000001	-0.0	-0.0	-0.0	-0.8314758539199829	20.41172790527344	-220.03453063964844	0.5917284488677979	-20.69928932189941	-281.1783447265625	-0.0	-0.0	-0.0	-0.0	-0.0	-0.0	82699.453125	12398.2939453125	-1873.9954833984373
0.0095	-0.0	-0.0	-0.0	-0.9813156127929688	20.261966705322266	-220.2638092041016	0.5906464457511902	-20.69746971130371	-280.8238220214844	-0.0	-0.0	-0.0	-0.0	-0.0	-0.0	82720.78125	12358.44140625	-1873.291015625
0.01	-0.0	-0.0	-0.0	-0.4766351580619812	20.46943664550781	-220.14212036132807	0.383957028388977	-20.54996681213379	-280.1341857910156	-0.0	-0.0	-0.0	-0.0	-0.0	-0.0	82624.34375	12269.4716796875	-2003.0882568359373
0.0105	-0.0	-0.0	-0.0	-0.5937590003013611	19.99443244934082	-220.0369110107422	0.7081202864646912	-20.46170997619629	-280.1401062011719	-0.0	-0.0	-0.0	-0.0	-0.0	-0.0	82819.796875	12209.107421875	-1844.3878173828125
0.011	-0.0	-0.0	-0.0	-1.041348576545715	20.263429641723636	-218.9715576171875	1.1567926406860352	-20.54656410217285	-280.7178955078125	-0.0	-0.0	-0.0	-0.0	-0.0	-0.0	82800.9453125	12217.2529296875	-1863.5406494140625
0.0115	-0.0	-0.0	-0.0	-0.1746866852045059	20.26542091369629	-217.8972320556641	0.8292769193649292	-20.638484954833984	-281.06707763671875	-0.0	-0.0	-0.0	-0.0	-0.0	-0.0	82895.2734375	12176.5712890625	-1744.5047607421875
0.012	-0.0	-0.0	-0.0	-0.1784210205078125	20.112403869628903	-218.27325439453125	1.0356698036193848	-20.78432846069336	-281.075439453125	-0.0	-0.0	-0.0	-0.0	-0.0	-0.0	82946.390625	12231.2802734375	-1736.133056640625
0.0125	-0.0	-0.0	-0.0	-0.1738850325345993	20.56243324279785	-218.02674865722656	0.9758186340332032	-20.70063591003418	-280.84051513671875	-0.0	-0.0	-0.0	-0.0	-0.0	-0.0	82986.1953125	12262.8642578125	-1794.031005859375
0.013000000000000001	-0.0	-0.0	-0.0	-0.2362508326768875	19.989171981811523	-218.0167236328125	1.0332527160644531	-20.493179321289062	-281.8985595703125	-0.0	-0.0	-0.0	-0.0	-0.0	-0.0	82841.5859375	12151.556640625	-1743.334228515625
